<svg width="193" height="142" viewBox="0 0 193 142" fill="none" xmlns="http://www.w3.org/2000/svg">
<path d="M29.8262 56.3165V62.0155H22.0889V85.5188H14.9755V62.0155H7.23812V56.3165H29.8262ZM36.9738 59.894C35.7258 59.894 34.6997 59.5334 33.8955 58.8124C33.1189 58.0636 32.7307 57.1484 32.7307 56.0669C32.7307 54.9576 33.1189 54.0424 33.8955 53.3214C34.6997 52.5726 35.7258 52.1982 36.9738 52.1982C38.194 52.1982 39.1924 52.5726 39.9689 53.3214C40.7731 54.0424 41.1752 54.9576 41.1752 56.0669C41.1752 57.1484 40.7731 58.0636 39.9689 58.8124C39.1924 59.5334 38.194 59.894 36.9738 59.894ZM40.5097 62.3067V85.5188H33.3963V62.3067H40.5097ZM44.2503 73.9127C44.2503 71.5 44.7356 69.3923 45.7063 67.5897C46.7046 65.7871 48.0774 64.4005 49.8245 63.4299C51.5994 62.4592 53.6239 61.9739 55.898 61.9739C58.8099 61.9739 61.2365 62.7365 63.1777 64.2618C65.1467 65.7871 66.4363 67.9364 67.0464 70.7096H59.4754C58.8376 68.9348 57.6035 68.0473 55.7732 68.0473C54.4697 68.0473 53.4298 68.5604 52.6532 69.5865C51.8767 70.5848 51.4885 72.0269 51.4885 73.9127C51.4885 75.7986 51.8767 77.2545 52.6532 78.2806C53.4298 79.279 54.4697 79.7782 55.7732 79.7782C57.6035 79.7782 58.8376 78.8907 59.4754 77.1158H67.0464C66.4363 79.8336 65.1467 81.969 63.1777 83.5221C61.2087 85.0751 58.7821 85.8516 55.898 85.8516C53.6239 85.8516 51.5994 85.3663 49.8245 84.3956C48.0774 83.425 46.7046 82.0384 45.7063 80.2358C44.7356 78.4331 44.2503 76.3255 44.2503 73.9127ZM85.0366 85.5188L77.9648 75.7847V85.5188H70.8514V54.7357H77.9648V71.7496L84.995 62.3067H93.7723L84.1214 73.9543L93.8555 85.5188H85.0366ZM118.447 73.5384C118.447 74.2039 118.406 74.8972 118.322 75.6183H102.224C102.335 77.0604 102.792 78.1697 103.596 78.9462C104.428 79.695 105.441 80.0694 106.633 80.0694C108.408 80.0694 109.642 79.3206 110.335 77.823H117.906C117.518 79.3483 116.811 80.7211 115.785 81.9413C114.787 83.1615 113.525 84.1183 111.999 84.8116C110.474 85.5049 108.769 85.8516 106.883 85.8516C104.609 85.8516 102.584 85.3663 100.809 84.3956C99.0345 83.425 97.6478 82.0384 96.6495 80.2358C95.6511 78.4331 95.1519 76.3255 95.1519 73.9127C95.1519 71.5 95.6372 69.3923 96.6079 67.5897C97.6062 65.7871 98.9929 64.4005 100.768 63.4299C102.543 62.4592 104.581 61.9739 106.883 61.9739C109.129 61.9739 111.126 62.4453 112.873 63.3883C114.62 64.3312 115.979 65.6762 116.95 67.4233C117.948 69.1705 118.447 71.2088 118.447 73.5384ZM111.167 71.6664C111.167 70.4462 110.751 69.4755 109.919 68.7545C109.087 68.0334 108.048 67.6729 106.8 67.6729C105.607 67.6729 104.595 68.0196 103.763 68.7129C102.959 69.4062 102.459 70.3907 102.265 71.6664H111.167ZM135.137 79.487V85.5188H131.518C128.939 85.5188 126.928 84.8948 125.486 83.6469C124.044 82.3712 123.323 80.3051 123.323 77.4486V68.2137H120.494V62.3067H123.323V56.6493H130.436V62.3067H135.095V68.2137H130.436V77.5318C130.436 78.2251 130.603 78.7243 130.936 79.0294C131.268 79.3344 131.823 79.487 132.6 79.487H135.137ZM142.677 59.894C141.429 59.894 140.403 59.5334 139.599 58.8124C138.822 58.0636 138.434 57.1484 138.434 56.0669C138.434 54.9576 138.822 54.0424 139.599 53.3214C140.403 52.5726 141.429 52.1982 142.677 52.1982C143.897 52.1982 144.895 52.5726 145.672 53.3214C146.476 54.0424 146.878 54.9576 146.878 56.0669C146.878 57.1484 146.476 58.0636 145.672 58.8124C144.895 59.5334 143.897 59.894 142.677 59.894ZM146.213 62.3067V85.5188H139.099V62.3067H146.213ZM164.305 79.487V85.5188H160.686C158.107 85.5188 156.096 84.8948 154.654 83.6469C153.212 82.3712 152.491 80.3051 152.491 77.4486V68.2137H149.662V62.3067H152.491V56.6493H159.604V62.3067H164.263V68.2137H159.604V77.5318C159.604 78.2251 159.771 78.7243 160.104 79.0294C160.436 79.3344 160.991 79.487 161.767 79.487H164.305ZM178.833 85.8516C176.559 85.8516 174.507 85.3663 172.677 84.3956C170.874 83.425 169.446 82.0384 168.392 80.2358C167.366 78.4331 166.853 76.3255 166.853 73.9127C166.853 71.5277 167.38 69.4339 168.434 67.6313C169.487 65.801 170.93 64.4005 172.76 63.4299C174.59 62.4592 176.642 61.9739 178.917 61.9739C181.191 61.9739 183.243 62.4592 185.073 63.4299C186.904 64.4005 188.346 65.801 189.399 67.6313C190.453 69.4339 190.98 71.5277 190.98 73.9127C190.98 76.2977 190.439 78.4054 189.358 80.2358C188.304 82.0384 186.848 83.425 184.99 84.3956C183.16 85.3663 181.107 85.8516 178.833 85.8516ZM178.833 79.695C180.192 79.695 181.343 79.1958 182.286 78.1974C183.257 77.199 183.742 75.7708 183.742 73.9127C183.742 72.0547 183.271 70.6264 182.328 69.6281C181.412 68.6297 180.275 68.1305 178.917 68.1305C177.53 68.1305 176.379 68.6297 175.464 69.6281C174.549 70.5987 174.091 72.0269 174.091 73.9127C174.091 75.7708 174.535 77.199 175.422 78.1974C176.337 79.1958 177.474 79.695 178.833 79.695Z" fill="black"/>
<path d="M29.8262 56.3165V62.0155H22.0889V85.5188H14.9755V62.0155H7.23812V56.3165H29.8262ZM36.9738 59.894C35.7258 59.894 34.6997 59.5334 33.8955 58.8124C33.1189 58.0636 32.7307 57.1484 32.7307 56.0669C32.7307 54.9576 33.1189 54.0424 33.8955 53.3214C34.6997 52.5726 35.7258 52.1982 36.9738 52.1982C38.194 52.1982 39.1924 52.5726 39.9689 53.3214C40.7731 54.0424 41.1752 54.9576 41.1752 56.0669C41.1752 57.1484 40.7731 58.0636 39.9689 58.8124C39.1924 59.5334 38.194 59.894 36.9738 59.894ZM40.5097 62.3067V85.5188H33.3963V62.3067H40.5097ZM44.2503 73.9127C44.2503 71.5 44.7356 69.3923 45.7063 67.5897C46.7046 65.7871 48.0774 64.4005 49.8245 63.4299C51.5994 62.4592 53.6239 61.9739 55.898 61.9739C58.8099 61.9739 61.2365 62.7365 63.1777 64.2618C65.1467 65.7871 66.4363 67.9364 67.0464 70.7096H59.4754C58.8376 68.9348 57.6035 68.0473 55.7732 68.0473C54.4697 68.0473 53.4298 68.5604 52.6532 69.5865C51.8767 70.5848 51.4885 72.0269 51.4885 73.9127C51.4885 75.7986 51.8767 77.2545 52.6532 78.2806C53.4298 79.279 54.4697 79.7782 55.7732 79.7782C57.6035 79.7782 58.8376 78.8907 59.4754 77.1158H67.0464C66.4363 79.8336 65.1467 81.969 63.1777 83.5221C61.2087 85.0751 58.7821 85.8516 55.898 85.8516C53.6239 85.8516 51.5994 85.3663 49.8245 84.3956C48.0774 83.425 46.7046 82.0384 45.7063 80.2358C44.7356 78.4331 44.2503 76.3255 44.2503 73.9127ZM85.0366 85.5188L77.9648 75.7847V85.5188H70.8514V54.7357H77.9648V71.7496L84.995 62.3067H93.7723L84.1214 73.9543L93.8555 85.5188H85.0366ZM118.447 73.5384C118.447 74.2039 118.406 74.8972 118.322 75.6183H102.224C102.335 77.0604 102.792 78.1697 103.596 78.9462C104.428 79.695 105.441 80.0694 106.633 80.0694C108.408 80.0694 109.642 79.3206 110.335 77.823H117.906C117.518 79.3483 116.811 80.7211 115.785 81.9413C114.787 83.1615 113.525 84.1183 111.999 84.8116C110.474 85.5049 108.769 85.8516 106.883 85.8516C104.609 85.8516 102.584 85.3663 100.809 84.3956C99.0345 83.425 97.6478 82.0384 96.6495 80.2358C95.6511 78.4331 95.1519 76.3255 95.1519 73.9127C95.1519 71.5 95.6372 69.3923 96.6079 67.5897C97.6062 65.7871 98.9929 64.4005 100.768 63.4299C102.543 62.4592 104.581 61.9739 106.883 61.9739C109.129 61.9739 111.126 62.4453 112.873 63.3883C114.62 64.3312 115.979 65.6762 116.95 67.4233C117.948 69.1705 118.447 71.2088 118.447 73.5384ZM111.167 71.6664C111.167 70.4462 110.751 69.4755 109.919 68.7545C109.087 68.0334 108.048 67.6729 106.8 67.6729C105.607 67.6729 104.595 68.0196 103.763 68.7129C102.959 69.4062 102.459 70.3907 102.265 71.6664H111.167ZM135.137 79.487V85.5188H131.518C128.939 85.5188 126.928 84.8948 125.486 83.6469C124.044 82.3712 123.323 80.3051 123.323 77.4486V68.2137H120.494V62.3067H123.323V56.6493H130.436V62.3067H135.095V68.2137H130.436V77.5318C130.436 78.2251 130.603 78.7243 130.936 79.0294C131.268 79.3344 131.823 79.487 132.6 79.487H135.137ZM142.677 59.894C141.429 59.894 140.403 59.5334 139.599 58.8124C138.822 58.0636 138.434 57.1484 138.434 56.0669C138.434 54.9576 138.822 54.0424 139.599 53.3214C140.403 52.5726 141.429 52.1982 142.677 52.1982C143.897 52.1982 144.895 52.5726 145.672 53.3214C146.476 54.0424 146.878 54.9576 146.878 56.0669C146.878 57.1484 146.476 58.0636 145.672 58.8124C144.895 59.5334 143.897 59.894 142.677 59.894ZM146.213 62.3067V85.5188H139.099V62.3067H146.213ZM164.305 79.487V85.5188H160.686C158.107 85.5188 156.096 84.8948 154.654 83.6469C153.212 82.3712 152.491 80.3051 152.491 77.4486V68.2137H149.662V62.3067H152.491V56.6493H159.604V62.3067H164.263V68.2137H159.604V77.5318C159.604 78.2251 159.771 78.7243 160.104 79.0294C160.436 79.3344 160.991 79.487 161.767 79.487H164.305ZM178.833 85.8516C176.559 85.8516 174.507 85.3663 172.677 84.3956C170.874 83.425 169.446 82.0384 168.392 80.2358C167.366 78.4331 166.853 76.3255 166.853 73.9127C166.853 71.5277 167.38 69.4339 168.434 67.6313C169.487 65.801 170.93 64.4005 172.76 63.4299C174.59 62.4592 176.642 61.9739 178.917 61.9739C181.191 61.9739 183.243 62.4592 185.073 63.4299C186.904 64.4005 188.346 65.801 189.399 67.6313C190.453 69.4339 190.98 71.5277 190.98 73.9127C190.98 76.2977 190.439 78.4054 189.358 80.2358C188.304 82.0384 186.848 83.425 184.99 84.3956C183.16 85.3663 181.107 85.8516 178.833 85.8516ZM178.833 79.695C180.192 79.695 181.343 79.1958 182.286 78.1974C183.257 77.199 183.742 75.7708 183.742 73.9127C183.742 72.0547 183.271 70.6264 182.328 69.6281C181.412 68.6297 180.275 68.1305 178.917 68.1305C177.53 68.1305 176.379 68.6297 175.464 69.6281C174.549 70.5987 174.091 72.0269 174.091 73.9127C174.091 75.7708 174.535 77.199 175.422 78.1974C176.337 79.1958 177.474 79.695 178.833 79.695Z" fill="black"/>
<path d="M29.8262 16.7977V22.4967H22.0889V46H14.9755V22.4967H7.23812V16.7977H29.8262ZM36.9738 20.3752C35.7258 20.3752 34.6997 20.0146 33.8955 19.2936C33.1189 18.5448 32.7307 17.6296 32.7307 16.5481C32.7307 15.4388 33.1189 14.5236 33.8955 13.8026C34.6997 13.0538 35.7258 12.6794 36.9738 12.6794C38.194 12.6794 39.1924 13.0538 39.9689 13.8026C40.7731 14.5236 41.1752 15.4388 41.1752 16.5481C41.1752 17.6296 40.7731 18.5448 39.9689 19.2936C39.1924 20.0146 38.194 20.3752 36.9738 20.3752ZM40.5097 22.7879V46H33.3963V22.7879H40.5097ZM44.2503 34.3939C44.2503 31.9812 44.7356 29.8735 45.7063 28.0709C46.7046 26.2683 48.0774 24.8817 49.8245 23.9111C51.5994 22.9404 53.6239 22.4551 55.898 22.4551C58.8099 22.4551 61.2365 23.2177 63.1777 24.743C65.1467 26.2683 66.4363 28.4176 67.0464 31.1908H59.4754C58.8376 29.416 57.6035 28.5285 55.7732 28.5285C54.4697 28.5285 53.4298 29.0416 52.6532 30.0677C51.8767 31.066 51.4885 32.5081 51.4885 34.3939C51.4885 36.2798 51.8767 37.7357 52.6532 38.7618C53.4298 39.7602 54.4697 40.2594 55.7732 40.2594C57.6035 40.2594 58.8376 39.3719 59.4754 37.597H67.0464C66.4363 40.3148 65.1467 42.4502 63.1777 44.0033C61.2087 45.5563 58.7821 46.3328 55.898 46.3328C53.6239 46.3328 51.5994 45.8475 49.8245 44.8768C48.0774 43.9062 46.7046 42.5196 45.7063 40.717C44.7356 38.9143 44.2503 36.8067 44.2503 34.3939ZM85.0366 46L77.9648 36.2659V46H70.8514V15.2169H77.9648V32.2308L84.995 22.7879H93.7723L84.1214 34.4355L93.8555 46H85.0366ZM118.447 34.0196C118.447 34.6851 118.406 35.3784 118.322 36.0995H102.224C102.335 37.5416 102.792 38.6509 103.596 39.4274C104.428 40.1762 105.441 40.5506 106.633 40.5506C108.408 40.5506 109.642 39.8018 110.335 38.3042H117.906C117.518 39.8295 116.811 41.2023 115.785 42.4225C114.787 43.6427 113.525 44.5995 111.999 45.2928C110.474 45.9861 108.769 46.3328 106.883 46.3328C104.609 46.3328 102.584 45.8475 100.809 44.8768C99.0345 43.9062 97.6478 42.5196 96.6495 40.717C95.6511 38.9143 95.1519 36.8067 95.1519 34.3939C95.1519 31.9812 95.6372 29.8735 96.6079 28.0709C97.6062 26.2683 98.9929 24.8817 100.768 23.9111C102.543 22.9404 104.581 22.4551 106.883 22.4551C109.129 22.4551 111.126 22.9265 112.873 23.8695C114.62 24.8124 115.979 26.1574 116.95 27.9045C117.948 29.6517 118.447 31.69 118.447 34.0196ZM111.167 32.1476C111.167 30.9274 110.751 29.9567 109.919 29.2357C109.087 28.5147 108.048 28.1541 106.8 28.1541C105.607 28.1541 104.595 28.5008 103.763 29.1941C102.959 29.8874 102.459 30.8719 102.265 32.1476H111.167ZM135.137 39.9682V46H131.518C128.939 46 126.928 45.376 125.486 44.1281C124.044 42.8524 123.323 40.7863 123.323 37.9298V28.6949H120.494V22.7879H123.323V17.1305H130.436V22.7879H135.095V28.6949H130.436V38.013C130.436 38.7063 130.603 39.2055 130.936 39.5106C131.268 39.8156 131.823 39.9682 132.6 39.9682H135.137ZM142.677 20.3752C141.429 20.3752 140.403 20.0146 139.599 19.2936C138.822 18.5448 138.434 17.6296 138.434 16.5481C138.434 15.4388 138.822 14.5236 139.599 13.8026C140.403 13.0538 141.429 12.6794 142.677 12.6794C143.897 12.6794 144.895 13.0538 145.672 13.8026C146.476 14.5236 146.878 15.4388 146.878 16.5481C146.878 17.6296 146.476 18.5448 145.672 19.2936C144.895 20.0146 143.897 20.3752 142.677 20.3752ZM146.213 22.7879V46H139.099V22.7879H146.213ZM164.305 39.9682V46H160.686C158.107 46 156.096 45.376 154.654 44.1281C153.212 42.8524 152.491 40.7863 152.491 37.9298V28.6949H149.662V22.7879H152.491V17.1305H159.604V22.7879H164.263V28.6949H159.604V38.013C159.604 38.7063 159.771 39.2055 160.104 39.5106C160.436 39.8156 160.991 39.9682 161.767 39.9682H164.305ZM178.833 46.3328C176.559 46.3328 174.507 45.8475 172.677 44.8768C170.874 43.9062 169.446 42.5196 168.392 40.717C167.366 38.9143 166.853 36.8067 166.853 34.3939C166.853 32.0089 167.38 29.9151 168.434 28.1125C169.487 26.2822 170.93 24.8817 172.76 23.9111C174.59 22.9404 176.642 22.4551 178.917 22.4551C181.191 22.4551 183.243 22.9404 185.073 23.9111C186.904 24.8817 188.346 26.2822 189.399 28.1125C190.453 29.9151 190.98 32.0089 190.98 34.3939C190.98 36.7789 190.439 38.8866 189.358 40.717C188.304 42.5196 186.848 43.9062 184.99 44.8768C183.16 45.8475 181.107 46.3328 178.833 46.3328ZM178.833 40.1762C180.192 40.1762 181.343 39.677 182.286 38.6786C183.257 37.6802 183.742 36.252 183.742 34.3939C183.742 32.5359 183.271 31.1076 182.328 30.1093C181.412 29.1109 180.275 28.6117 178.917 28.6117C177.53 28.6117 176.379 29.1109 175.464 30.1093C174.549 31.0799 174.091 32.5081 174.091 34.3939C174.091 36.252 174.535 37.6802 175.422 38.6786C176.337 39.677 177.474 40.1762 178.833 40.1762Z" fill="white"/>
<path d="M26.9817 55.1595V61.1473H19.1865V85.8418H12.02V61.1473H4.22485V55.1595H26.9817ZM34.1826 58.9183C32.9253 58.9183 31.8916 58.5395 31.0813 57.7819C30.299 56.9952 29.9078 56.0336 29.9078 54.8972C29.9078 53.7317 30.299 52.7702 31.0813 52.0126C31.8916 51.2259 32.9253 50.8325 34.1826 50.8325C35.412 50.8325 36.4178 51.2259 37.2001 52.0126C38.0104 52.7702 38.4154 53.7317 38.4154 54.8972C38.4154 56.0336 38.0104 56.9952 37.2001 57.7819C36.4178 58.5395 35.412 58.9183 34.1826 58.9183ZM37.7449 61.4533V85.8418H30.5784V61.4533H37.7449ZM41.5134 73.6475C41.5134 71.1125 42.0025 68.8981 42.9802 67.0041C43.986 65.1101 45.3691 63.6532 47.1293 62.6334C48.9175 61.6135 50.9571 61.1036 53.248 61.1036C56.1817 61.1036 58.6265 61.9049 60.5822 63.5075C62.566 65.1101 63.8652 67.3683 64.4798 70.2821H56.8522C56.2098 68.4173 54.9663 67.4849 53.1223 67.4849C51.8093 67.4849 50.7615 68.0239 49.9791 69.102C49.1969 70.151 48.8056 71.6661 48.8056 73.6475C48.8056 75.629 49.1969 77.1587 49.9791 78.2368C50.7615 79.2857 51.8093 79.8102 53.1223 79.8102C54.9663 79.8102 56.2098 78.8777 56.8522 77.013H64.4798C63.8652 79.8686 62.566 82.1121 60.5822 83.7439C58.5986 85.3757 56.1538 86.1914 53.248 86.1914C50.9571 86.1914 48.9175 85.6816 47.1293 84.6617C45.3691 83.6418 43.986 82.185 42.9802 80.291C42.0025 78.397 41.5134 76.1825 41.5134 73.6475ZM82.6044 85.8418L75.4797 75.6144V85.8418H68.3132V53.4986H75.4797V71.3748L82.5625 61.4533H91.4053L81.6824 73.6912L91.4892 85.8418H82.6044ZM116.265 73.2542C116.265 73.9535 116.223 74.6819 116.139 75.4395H99.9199C100.032 76.9546 100.493 78.1203 101.303 78.9361C102.141 79.7228 103.161 80.1162 104.362 80.1162C106.15 80.1162 107.394 79.3294 108.092 77.756H115.72C115.329 79.3585 114.616 80.8008 113.582 82.083C112.577 83.3651 111.305 84.3704 109.769 85.0988C108.232 85.8271 106.514 86.1914 104.614 86.1914C102.323 86.1914 100.283 85.6816 98.495 84.6617C96.7069 83.6418 95.3098 82.185 94.304 80.291C93.2982 78.397 92.7953 76.1825 92.7953 73.6475C92.7953 71.1125 93.2841 68.8981 94.2621 67.0041C95.2679 65.1101 96.665 63.6532 98.453 62.6334C100.241 61.6135 102.295 61.1036 104.614 61.1036C106.877 61.1036 108.889 61.599 110.649 62.5897C112.409 63.5804 113.778 64.9936 114.756 66.8292C115.762 68.6649 116.265 70.8066 116.265 73.2542ZM108.93 71.2874C108.93 70.0053 108.511 68.9855 107.673 68.2279C106.835 67.4703 105.787 67.0915 104.53 67.0915C103.329 67.0915 102.309 67.4557 101.471 68.1842C100.66 68.9126 100.157 69.947 99.9618 71.2874H108.93ZM133.079 79.5043V85.8418H129.433C126.835 85.8418 124.809 85.1862 123.356 83.875C121.903 82.5347 121.177 80.3638 121.177 77.3626V67.6597H118.327V61.4533H121.177V55.5091H128.343V61.4533H133.037V67.6597H128.343V77.45C128.343 78.1784 128.511 78.7029 128.846 79.0235C129.181 79.3441 129.74 79.5043 130.523 79.5043H133.079ZM140.675 58.9183C139.418 58.9183 138.384 58.5395 137.574 57.7819C136.792 56.9952 136.4 56.0336 136.4 54.8972C136.4 53.7317 136.792 52.7702 137.574 52.0126C138.384 51.2259 139.418 50.8325 140.675 50.8325C141.905 50.8325 142.91 51.2259 143.693 52.0126C144.503 52.7702 144.908 53.7317 144.908 54.8972C144.908 56.0336 144.503 56.9952 143.693 57.7819C142.91 58.5395 141.905 58.9183 140.675 58.9183ZM144.237 61.4533V85.8418H137.071V61.4533H144.237ZM162.465 79.5043V85.8418H158.819C156.22 85.8418 154.195 85.1862 152.742 83.875C151.289 82.5347 150.563 80.3638 150.563 77.3626V67.6597H147.713V61.4533H150.563V55.5091H157.729V61.4533H162.423V67.6597H157.729V77.45C157.729 78.1784 157.897 78.7029 158.232 79.0235C158.567 79.3441 159.126 79.5043 159.908 79.5043H162.465ZM177.102 86.1914C174.811 86.1914 172.743 85.6816 170.899 84.6617C169.083 83.6418 167.644 82.185 166.583 80.291C165.549 78.397 165.032 76.1825 165.032 73.6475C165.032 71.1416 165.563 68.9418 166.624 67.0478C167.686 65.1247 169.139 63.6532 170.983 62.6334C172.827 61.6135 174.894 61.1036 177.186 61.1036C179.477 61.1036 181.544 61.6135 183.388 62.6334C185.232 63.6532 186.685 65.1247 187.747 67.0478C188.808 68.9418 189.339 71.1416 189.339 73.6475C189.339 76.1535 188.795 78.3679 187.705 80.291C186.643 82.185 185.176 83.6418 183.304 84.6617C181.46 85.6816 179.393 86.1914 177.102 86.1914ZM177.102 79.7228C178.471 79.7228 179.63 79.1983 180.58 78.1494C181.558 77.1004 182.047 75.5997 182.047 73.6475C182.047 71.6954 181.572 70.1947 180.622 69.1457C179.7 68.0968 178.555 67.5723 177.186 67.5723C175.789 67.5723 174.629 68.0968 173.707 69.1457C172.785 70.1656 172.324 71.6661 172.324 73.6475C172.324 75.5997 172.771 77.1004 173.665 78.1494C174.587 79.1983 175.733 79.7228 177.102 79.7228Z" fill="url(#paint0_linear_126_44)"/>
<path d="M29.8262 95.8353V101.534H22.0889V125.038H14.9755V101.534H7.23812V95.8353H29.8262ZM36.9738 99.4128C35.7258 99.4128 34.6997 99.0523 33.8955 98.3312C33.1189 97.5825 32.7307 96.6673 32.7307 95.5857C32.7307 94.4764 33.1189 93.5613 33.8955 92.8402C34.6997 92.0914 35.7258 91.717 36.9738 91.717C38.194 91.717 39.1924 92.0914 39.9689 92.8402C40.7731 93.5613 41.1752 94.4764 41.1752 95.5857C41.1752 96.6673 40.7731 97.5825 39.9689 98.3312C39.1924 99.0523 38.194 99.4128 36.9738 99.4128ZM40.5097 101.826V125.038H33.3963V101.826H40.5097ZM44.2503 113.432C44.2503 111.019 44.7356 108.911 45.7063 107.109C46.7046 105.306 48.0774 103.919 49.8245 102.949C51.5994 101.978 53.6239 101.493 55.898 101.493C58.8099 101.493 61.2365 102.255 63.1777 103.781C65.1467 105.306 66.4363 107.455 67.0464 110.228H59.4754C58.8376 108.454 57.6035 107.566 55.7732 107.566C54.4697 107.566 53.4298 108.079 52.6532 109.105C51.8767 110.104 51.4885 111.546 51.4885 113.432C51.4885 115.317 51.8767 116.773 52.6532 117.799C53.4298 118.798 54.4697 119.297 55.7732 119.297C57.6035 119.297 58.8376 118.41 59.4754 116.635H67.0464C66.4363 119.352 65.1467 121.488 63.1777 123.041C61.2087 124.594 58.7821 125.37 55.898 125.37C53.6239 125.37 51.5994 124.885 49.8245 123.914C48.0774 122.944 46.7046 121.557 45.7063 119.755C44.7356 117.952 44.2503 115.844 44.2503 113.432ZM85.0366 125.038L77.9648 115.304V125.038H70.8514V94.2546H77.9648V111.268L84.995 101.826H93.7723L84.1214 113.473L93.8555 125.038H85.0366ZM118.447 113.057C118.447 113.723 118.406 114.416 118.322 115.137H102.224C102.335 116.579 102.792 117.689 103.596 118.465C104.428 119.214 105.441 119.588 106.633 119.588C108.408 119.588 109.642 118.839 110.335 117.342H117.906C117.518 118.867 116.811 120.24 115.785 121.46C114.787 122.68 113.525 123.637 111.999 124.33C110.474 125.024 108.769 125.37 106.883 125.37C104.609 125.37 102.584 124.885 100.809 123.914C99.0345 122.944 97.6478 121.557 96.6495 119.755C95.6511 117.952 95.1519 115.844 95.1519 113.432C95.1519 111.019 95.6372 108.911 96.6079 107.109C97.6062 105.306 98.9929 103.919 100.768 102.949C102.543 101.978 104.581 101.493 106.883 101.493C109.129 101.493 111.126 101.964 112.873 102.907C114.62 103.85 115.979 105.195 116.95 106.942C117.948 108.689 118.447 110.728 118.447 113.057ZM111.167 111.185C111.167 109.965 110.751 108.994 109.919 108.273C109.087 107.552 108.048 107.192 106.8 107.192C105.607 107.192 104.595 107.538 103.763 108.232C102.959 108.925 102.459 109.91 102.265 111.185H111.167ZM135.137 119.006V125.038H131.518C128.939 125.038 126.928 124.414 125.486 123.166C124.044 121.89 123.323 119.824 123.323 116.967V107.733H120.494V101.826H123.323V96.1681H130.436V101.826H135.095V107.733H130.436V117.051C130.436 117.744 130.603 118.243 130.936 118.548C131.268 118.853 131.823 119.006 132.6 119.006H135.137ZM142.677 99.4128C141.429 99.4128 140.403 99.0523 139.599 98.3312C138.822 97.5825 138.434 96.6673 138.434 95.5857C138.434 94.4764 138.822 93.5613 139.599 92.8402C140.403 92.0914 141.429 91.717 142.677 91.717C143.897 91.717 144.895 92.0914 145.672 92.8402C146.476 93.5613 146.878 94.4764 146.878 95.5857C146.878 96.6673 146.476 97.5825 145.672 98.3312C144.895 99.0523 143.897 99.4128 142.677 99.4128ZM146.213 101.826V125.038H139.099V101.826H146.213ZM164.305 119.006V125.038H160.686C158.107 125.038 156.096 124.414 154.654 123.166C153.212 121.89 152.491 119.824 152.491 116.967V107.733H149.662V101.826H152.491V96.1681H159.604V101.826H164.263V107.733H159.604V117.051C159.604 117.744 159.771 118.243 160.104 118.548C160.436 118.853 160.991 119.006 161.767 119.006H164.305ZM178.833 125.37C176.559 125.37 174.507 124.885 172.677 123.914C170.874 122.944 169.446 121.557 168.392 119.755C167.366 117.952 166.853 115.844 166.853 113.432C166.853 111.047 167.38 108.953 168.434 107.15C169.487 105.32 170.93 103.919 172.76 102.949C174.59 101.978 176.642 101.493 178.917 101.493C181.191 101.493 183.243 101.978 185.073 102.949C186.904 103.919 188.346 105.32 189.399 107.15C190.453 108.953 190.98 111.047 190.98 113.432C190.98 115.817 190.439 117.924 189.358 119.755C188.304 121.557 186.848 122.944 184.99 123.914C183.16 124.885 181.107 125.37 178.833 125.37ZM178.833 119.214C180.192 119.214 181.343 118.715 182.286 117.716C183.257 116.718 183.742 115.29 183.742 113.432C183.742 111.574 183.271 110.145 182.328 109.147C181.412 108.149 180.275 107.649 178.917 107.649C177.53 107.649 176.379 108.149 175.464 109.147C174.549 110.118 174.091 111.546 174.091 113.432C174.091 115.29 174.535 116.718 175.422 117.716C176.337 118.715 177.474 119.214 178.833 119.214Z" fill="white"/>
<defs>
<linearGradient id="paint0_linear_126_44" x1="3.18488" y1="90.3513" x2="188.299" y2="90.3513" gradientUnits="userSpaceOnUse">
<stop stop-color="#0014FF"/>
<stop offset="0.375" stop-color="#008DAB"/>
<stop offset="1" stop-color="#00FF5B"/>
</linearGradient>
</defs>
</svg>
